# xmcd
#
# Track frame offsets: 
#        150
#        48300
#        61950
#        83175
#        125325
#
# Disc length: 1987 seconds
#
# Revision: 0
# Processed by: cddbd v1.5.2PL0 Copyright (c) Steve Scherf et al.
# Submitted via: ExactAudioCopy v0.99pb5
#
DISCID=3a07c105
DTITLE=Blues Guys, The - Live... Airfield... Kosovo...
DYEAR=2002
DGENRE=Blues
TTITLE0=Get on the move
TTITLE1=Shake your tailfeather
TTITLE2=Dancing in the moonlight
TTITLE3=Proud Mary
TTITLE4=Open me up
EXTD=
EXTT0=
EXTT1=
EXTT2=
EXTT3=
EXTT4=
PLAYORDER=
